<?xml version="1.0" encoding="UTF-8" standalone="no"?>
<!-- Created with Inkscape (http://www.inkscape.org/) -->

<svg
   version="1.1"
   id="svg489"
   width="2800"
   height="2800"
   viewBox="0 0 2800 2800"
   xmlns:xlink="http://www.w3.org/1999/xlink"
   xmlns="http://www.w3.org/2000/svg"
   xmlns:svg="http://www.w3.org/2000/svg">
  <defs
     id="defs493" />
  <g
     id="g495">
    <image
       width="2800"
       height="2800"
       preserveAspectRatio="none"
       xlink:href="logo_plain_transparent_dark.png"
       id="image497" />
    <path
       style="fill:#000000;stroke-width:0.8"
       d="m 711.26316,1845.9334 c 0.0384,-0.932 0.22795,-1.1216 0.48333,-0.4834 0.23109,0.5775 0.20268,1.2675 -0.0631,1.5334 -0.26583,0.2658 -0.45491,-0.2068 -0.42018,-1.05 z m -117.46581,-11.6172 -14.60265,-0.6408 -5.31949,-2.9749 c -4.68979,-2.6227 -5.11563,-3.0503 -3.59735,-3.6119 2.76972,-1.0246 1.98504,-2.2886 -1.42072,-2.2886 -3.40555,0 -5.65714,-1.5966 -5.65714,-4.0114 0,-0.8234 -0.75613,-2.7787 -1.68028,-4.345 -1.53674,-2.6046 -1.65009,-3.7533 -1.32683,-13.4458 0.20362,-6.1053 -0.13609,-15.6846 -0.8014,-22.5978 -0.97874,-10.17 -1.00674,-16.595 -0.18361,-42.1315 0.53418,-16.5723 0.73142,-30.5195 0.43832,-30.9938 -0.2931,-0.4742 -0.68576,-6.196 -0.87257,-12.7149 -0.18681,-6.5191 -0.70421,-15.9719 -1.1498,-21.0063 -0.44558,-5.0344 -0.81618,-12.3935 -0.82355,-16.3535 -0.007,-3.96 -0.41764,-10.44 -0.91171,-14.4 -0.49407,-3.96 -0.84558,-10.26 -0.78113,-14 0.0644,-3.74 -0.17799,-7.8566 -0.53875,-9.1478 -0.85003,-3.0428 -2.56869,-3.6576 -2.56869,-0.9188 0,1.3036 -0.44301,2.0666 -1.2,2.0666 -0.66,0 -1.2,-0.36 -1.2,-0.8 0,-1.8583 -2.45899,-0.5699 -4.54812,2.3829 -1.45458,2.056 -2.87974,3.189 -4.02522,3.2 -0.97532,0.01 -2.9709,1.2147 -4.4346,2.6784 -1.46371,1.4637 -4.37076,3.515 -6.46013,4.5585 -2.08937,1.0435 -4.92863,2.9059 -6.30948,4.1387 -1.38084,1.2329 -2.80448,2.2415 -3.16364,2.2415 -1.1674,0 -12.21719,8.1211 -13.72554,10.0877 -0.82841,1.0801 -2.30434,1.9123 -3.39141,1.9123 -2.97068,0 -9.82915,2.8691 -11.96563,5.0056 -1.84106,1.841 -8.69217,3.7905 -17.57623,5.0011 -1.76,0.2399 -5.18,0.7822 -7.6,1.2051 -2.42,0.423 -15.2,0.9997 -28.4,1.2817 -20.63235,0.4408 -25.06642,0.3219 -31.6,-0.8472 -4.18,-0.7479 -9.04,-1.5701 -10.8,-1.8271 -1.76,-0.257 -3.92,-0.9054 -4.8,-1.441 -0.88,-0.5355 -3.49,-1.5596 -5.8,-2.2759 -2.31,-0.7163 -6.09,-1.8883 -8.4,-2.6046 -2.31,-0.7163 -4.99734,-1.7963 -5.97186,-2.4 -0.97452,-0.6037 -2.59452,-1.1101 -3.6,-1.1252 -1.00548,-0.015 -4.52814,-1.0939 -7.82814,-2.3971 -3.3,-1.3032 -6.42182,-2.3708 -6.93739,-2.3724 -0.51557,0 -3.32739,-1.6056 -6.24849,-3.5645 -2.9211,-1.9588 -6.09928,-3.8114 -7.06261,-4.1168 -0.96333,-0.3055 -3.09436,-1.4028 -4.73561,-2.4386 -1.64126,-1.0357 -3.5576,-1.8831 -4.25854,-1.8831 -0.70094,0 -2.59809,-1.4783 -4.2159,-3.2852 -1.6178,-1.8068 -5.28146,-4.8166 -8.14146,-6.6882 -4.64452,-3.0395 -11.19602,-9.3332 -20.23225,-19.4364 -1.66773,-1.8646 -3.52913,-3.3902 -4.13643,-3.3902 -0.6073,0 -1.32198,-0.99 -1.58815,-2.2 -0.53307,-2.4233 -5.67812,-9.6211 -11.01062,-15.4038 -1.8879,-2.0472 -3.99733,-4.774 -4.68761,-6.0592 -0.69028,-1.2854 -2.31028,-2.862 -3.6,-3.5036 -3.16977,-1.577 -5.10568,-4.0144 -5.12715,-6.4554 -0.01,-1.1121 -0.53551,-2.7611 -1.16827,-3.6646 -5.40079,-7.7107 -16.86866,-32.7576 -18.45778,-40.3134 -0.32388,-1.54 -1.3979,-4.42 -2.3867,-6.4 -0.98881,-1.98 -2.0645,-4.5 -2.39042,-5.6 -0.32592,-1.1 -1.04732,-3.08 -1.60311,-4.4 -0.55578,-1.32 -1.44737,-3.9874 -1.9813,-5.9274 -0.53394,-1.9401 -1.46387,-4.0205 -2.06651,-4.6232 -0.60264,-0.6026 -0.91816,-1.5584 -0.70116,-2.1239 0.21701,-0.5655 -0.18948,-3.1651 -0.90331,-5.7769 -0.71383,-2.6117 -1.64399,-6.0086 -2.06703,-7.5486 -1.56622,-5.7015 -3.05587,-13.3838 -3.8421,-19.8139 -0.44478,-3.6377 -1.16407,-7.2779 -1.5984,-8.0895 -0.43435,-0.8116 -1.21248,-9.1753 -1.7292,-18.5861 -1.10648,-20.1517 -1.0655,-16.9818 -0.43836,-33.9105 0.27711,-7.48 0.69985,-21.7 0.93943,-31.6 0.23958,-9.9 0.94425,-21.6 1.56594,-26 0.62169,-4.4 1.53582,-11.6 2.0314,-16 0.49558,-4.4 1.25668,-9.08 1.69133,-10.4 0.43466,-1.32 1.30239,-5.28 1.9283,-8.8 1.09166,-6.1393 5.59014,-23.261 8.09228,-30.8 2.09605,-6.3154 6.42924,-18.7303 7.25988,-20.8 0.44147,-1.1 1.22813,-3.3393 1.74814,-4.9762 0.52001,-1.6368 3.44605,-7.5586 6.50231,-13.1596 3.05627,-5.6008 5.55685,-10.6304 5.55685,-11.1766 0,-0.5462 0.36967,-1.2217 0.82149,-1.5009 0.45181,-0.2792 2.26197,-3.2705 4.02257,-6.6472 1.76059,-3.3767 4.36092,-7.7263 5.77851,-9.6657 3.54729,-4.8529 15.4193,-16.6767 20.15577,-20.0738 2.14716,-1.54 4.29042,-3.16 4.7628,-3.6 0.47237,-0.44 2.11886,-1.7642 3.65886,-2.9427 1.54,-1.1785 3.77682,-2.9785 4.97073,-4 1.19389,-1.0215 4.38114,-3.6573 7.08277,-5.8573 2.70163,-2.2 7.74123,-6.3898 11.19911,-9.3106 6.35675,-5.3696 21.79696,-14.7064 32.2514,-19.5029 6.35893,-2.9175 15.44662,-5.7523 22.09599,-6.8927 2.42,-0.4151 7.28,-1.8655 10.8,-3.2231 3.9845,-1.5369 9.57034,-2.879 14.8,-3.5561 8.39451,-1.087 28.93338,-2.9851 31.2,-2.8833 1.39461,0.062 11.67122,2.0478 22,4.25 3.96,0.8443 10.98,2.2723 15.6,3.1734 15.2783,2.9799 24.5303,5.7655 38,11.4415 4.84,2.0396 9.7,4.4257 10.8,5.3026 1.1,0.8769 3.34258,2.3194 4.98351,3.2056 1.64094,0.8862 3.51711,2.6431 4.16927,3.9043 0.68366,1.322 2.46908,2.822 4.21648,3.5423 1.66691,0.6872 5.15067,2.9818 7.74168,5.0992 2.59103,2.1174 5.19112,4.2017 5.77799,4.6318 1.84417,1.3516 2.88146,-0.759 2.80384,-5.7051 -0.23634,-15.0583 -0.58718,-22.3855 -1.11136,-23.21 -0.57307,-0.9015 0.18965,-5.9729 1.91285,-12.7186 0.82694,-3.2373 0.85644,-3.2577 6.62603,-4.6 3.18746,-0.7416 7.93926,-1.3483 10.55954,-1.3483 3.11006,0 5.41092,-0.453 6.62699,-1.3048 1.02455,-0.7176 3.35464,-1.3072 5.178,-1.3103 1.82335,0 6.79173,-0.6759 11.04084,-1.4952 4.24912,-0.8194 8.86183,-1.4897 10.25045,-1.4897 1.38863,0 7.81208,-1.2529 14.27434,-2.7842 6.46225,-1.5313 16.06955,-3.7012 21.34955,-4.8218 5.28,-1.1207 11.4,-2.4553 13.6,-2.9658 6.05179,-1.4041 30.15661,-0.8714 35.2,0.778 7.4,2.4201 16.92493,7.4441 19.77682,10.4314 2.49057,2.6089 2.89077,3.6132 3.35336,8.4155 0.66661,6.9206 2.42583,11.3218 5.36081,13.4117 1.47546,1.0506 2.30901,2.3555 2.30901,3.6148 0,2.1917 1.88377,3.3422 3.41018,2.0827 0.77888,-0.6427 1.03188,2.2791 1.18717,13.7105 0.10855,7.9899 0.70555,22.9717 1.32668,33.2926 1.01554,16.8748 1.00431,18.8568 -0.11141,19.6727 -1.07915,0.7891 -1.17298,2.9293 -0.72056,16.4345 0.28609,8.5401 0.90154,19.4874 1.36767,24.3274 0.46612,4.84 1.06808,31.48 1.33769,59.2 0.61244,62.9703 0.62696,66.4746 0.34621,83.6 -0.12623,7.7 0.1731,25.34 0.66517,39.2 0.49208,13.86 1.21884,36.9 1.61502,51.2 0.39619,14.3 1.21583,33.92 1.82142,43.6 0.60559,9.68 0.79816,17.942 0.42792,18.36 -0.37024,0.418 -0.67316,2.2589 -0.67316,4.0908 0,1.8319 -0.32803,5.0899 -0.72897,7.24 -0.40093,2.1501 -0.84102,7.8692 -0.97799,12.7092 -0.2279,8.0535 -0.12746,8.7898 1.18397,8.6798 0.96093,-0.081 1.2831,0.2703 0.97799,1.0653 -0.25025,0.6522 -0.455,2.0143 -0.455,3.0271 0,1.0913 -0.57892,1.9926 -1.42147,2.2129 -1.27383,0.3331 -1.36713,1.0699 -0.89827,7.0933 0.28776,3.6969 0.20741,7.0636 -0.17853,7.4816 -0.38595,0.418 -0.70173,3.8479 -0.70173,7.622 0,4.5866 -0.37134,7.3922 -1.11991,8.4609 -0.61595,0.8794 -1.3128,3.7495 -1.54855,6.378 -0.23576,2.6285 -0.7975,7.2991 -1.24833,10.3791 -0.45083,3.08 -1.00806,8.84 -1.23828,12.8 -0.23023,3.96 -0.6522,9.72 -0.93773,12.8 -0.28552,3.08 -0.6283,10.1 -0.76174,15.6 -0.13344,5.5 -0.31577,11.08 -0.4052,12.4 -0.0894,1.32 0.14584,4.92 0.52281,8 0.96015,7.8449 0.77315,13.236 -0.48613,14.0142 -0.86298,0.5334 -0.80104,2.0017 0.34248,8.1184 1.9736,10.5571 2.11586,17.4321 0.39628,19.1517 -1.15297,1.153 -1.23306,1.9363 -0.53528,5.2358 0.4513,2.1339 1.22194,4.1347 1.71253,4.4461 0.62911,0.3992 0.50434,1.2244 -0.42337,2.8 -1.5108,2.5657 -2.00875,17.2314 -1.25432,36.942 0.443,11.5738 0.98402,13.4616 3.58474,12.5085 1.34719,-0.4937 1.26117,0.2364 -0.2,1.6976 -1.84598,1.8459 -1.46965,3.4857 0.8,3.4857 1.1,0 2,0.3689 2,0.8198 0,0.4509 -0.9,1.162 -2,1.5802 -1.48893,0.5661 -2,1.3442 -2,3.045 0,1.6125 -0.58298,2.5966 -1.98173,3.3452 -1.1832,0.6332 -2.52725,2.5412 -3.33557,4.7352 -1.89199,5.1352 -2.97006,6.1526 -8.5676,8.0853 -11.52276,3.9786 -15.8294,4.8315 -25.9782,5.1451 -5.57529,0.1722 -21.2969,0.6868 -34.9369,1.1436 -27.7864,0.9304 -33.74546,0.9322 -54.60265,0.017 z M 467.99117,1485.2106 c 0.8172,-0.9846 0.48985,-1.6296 -1.90204,-3.7472 -1.58903,-1.4068 -2.88913,-2.8516 -2.88913,-3.2106 0,-1.4409 1.99606,-0.4915 5.22568,2.4854 6.29365,5.8013 14.8553,5.5542 27.05645,-0.7811 14.09706,-7.3197 21.04271,-12.975 28.93148,-23.5571 1.31205,-1.76 3.01721,-3.6714 3.78925,-4.2477 0.95898,-0.7157 1.25173,-1.6531 0.92404,-2.9587 -0.36463,-1.4528 0.49313,-3.3183 3.57672,-7.7789 5.02895,-7.2746 10.66163,-22.8853 9.13788,-25.3253 -0.6298,-1.0084 -0.69324,-2.4583 -0.20049,-4.5823 1.057,-4.5562 0.93337,-10.5737 -0.46651,-22.7071 -0.68532,-5.94 -1.64302,-14.4 -2.12823,-18.8 -0.48521,-4.4 -1.90397,-11.2095 -3.15281,-15.1323 -1.24883,-3.9228 -2.48718,-8.4228 -2.75188,-10 -0.79187,-4.7183 -1.19316,-5.6677 -2.39549,-5.6677 -0.63035,0 -1.14609,-0.72 -1.14609,-1.6 0,-0.88 -0.4071,-1.6 -0.90467,-1.6 -0.58715,0 -0.74519,-0.9829 -0.45027,-2.8002 0.5132,-3.1625 -2.4751,-10.6708 -7.00477,-17.5998 -1.43819,-2.2 -4.15981,-6.6314 -6.04805,-9.8474 -4.93062,-8.398 -9.94015,-13.7526 -12.86638,-13.7526 -1.31316,0 -2.33745,0.4354 -2.35248,1 -0.0146,0.55 -0.70234,0.19 -1.52823,-0.8 -0.82589,-0.99 -2.07391,-1.8 -2.77338,-1.8 -0.69947,0 -1.27177,-0.51 -1.27177,-1.1334 0,-2.0151 -10.55378,-4.6836 -18.32601,-4.6336 -11.19435,0.072 -12.30743,0.2504 -16.07399,2.5794 -1.98,1.2242 -4.86,2.4737 -6.4,2.7764 -4.3503,0.8554 -13.67332,5.8076 -17.06778,9.0662 -1.68729,1.6197 -3.74119,4.2491 -4.56422,5.843 -0.82303,1.5938 -3.76253,5.3738 -6.53221,8.4 -8.36321,9.1375 -10.25937,12.8749 -15.37366,30.302 -3.12363,10.6438 -5.65967,34.2862 -4.96076,46.2467 0.95494,16.3421 2.75105,33.7634 4.51091,43.7533 2.12697,12.0739 6.4904,22.549 11.14908,26.765 1.01173,0.9156 1.63864,2.4785 1.63864,4.0852 0,3.6148 3.83764,10.7276 6.29126,11.6605 3.39243,1.2899 4.50874,0.5814 4.50874,-2.8613 0,-1.7124 0.37872,-3.2403 0.84161,-3.3953 0.46288,-0.155 3.70037,2.6044 7.19441,6.1321 3.49405,3.5276 6.81689,6.4138 7.38409,6.4138 0.5672,0 2.36971,0.6103 4.00559,1.3563 4.81048,2.1936 5.95844,2.48 10.27635,2.5639 2.73388,0.053 4.43126,-0.3169 5.08912,-1.1096 z m 279.37729,328.7087 c -0.56735,-0.6156 -0.6786,-1.1193 -0.24721,-1.1193 0.83075,0 2.03337,1.5218 1.55886,1.9726 -0.15406,0.1463 -0.7443,-0.2376 -1.31165,-0.8533 z m 9.18779,-13.1651 c -0.35314,-1.3503 -0.22631,-1.4763 0.70669,-0.702 1.27267,1.0563 1.50942,2.3478 0.43036,2.3478 -0.38868,0 -0.90036,-0.7406 -1.13705,-1.6458 z M 724.15596,1784.4 c 0.0163,-1.32 0.1956,-1.7631 0.39843,-0.9848 0.20283,0.7784 0.1895,1.8584 -0.0297,2.4 -0.21914,0.5417 -0.38509,-0.095 -0.36879,-1.4152 z M 1180,1776 c 0,-0.44 0.3813,-0.8 0.8472,-0.8 0.466,0 0.6247,0.36 0.3528,0.8 -0.2719,0.44 -0.6532,0.8 -0.8472,0.8 -0.1941,0 -0.3528,-0.36 -0.3528,-0.8 z m -33.6,-0.8 c 0,-0.44 0.36,-0.8 0.8,-0.8 0.44,0 0.8,0.36 0.8,0.8 0,0.44 -0.36,0.8 -0.8,0.8 -0.44,0 -0.8,-0.36 -0.8,-0.8 z m -404,-17.2 c -0.81566,-0.9828 -0.76099,-1.2 0.30205,-1.2 0.71387,0 1.29795,0.54 1.29795,1.2 0,0.66 -0.13592,1.2 -0.30205,1.2 -0.16612,0 -0.7502,-0.54 -1.29795,-1.2 z m 50.46316,-49.6666 c 0.0384,-0.932 0.22795,-1.1216 0.48333,-0.4834 0.23109,0.5775 0.20268,1.2675 -0.0631,1.5334 -0.26583,0.2658 -0.45491,-0.2068 -0.42018,-1.05 z M 733.3107,1704.4 c -0.25327,-0.66 -0.11178,-1.2 0.3144,-1.2 0.4262,0 0.7749,0.54 0.7749,1.2 0,0.66 -0.14149,1.2 -0.31441,1.2 -0.17293,0 -0.52162,-0.54 -0.77489,-1.2 z M 757,1704.2702 c -1.39294,-0.5621 -1.25305,-1.8702 0.2,-1.8702 0.66,0 1.2,0.54 1.2,1.2 0,0.66 -0.09,1.1716 -0.2,1.1369 -0.11,-0.035 -0.65,-0.2448 -1.2,-0.4667 z m 883.5365,-37.1418 c -4.7649,-0.418 -9.9389,-1.2929 -11.4977,-1.9442 -3.8551,-1.6108 -10.6388,-1.6007 -10.6388,0.016 0,1.5104 -0.8198,1.5116 -3.7086,0.01 -1.2603,-0.6573 -4.3401,-1.1973 -6.8442,-1.2 -2.504,0 -4.7519,-0.3272 -4.9953,-0.721 -0.6389,-1.0337 -25.2057,-0.5334 -27.8606,0.5673 -3.1809,1.3189 -9.4953,0.3237 -9.9918,-1.5747 -0.3889,-1.4871 -1.8965,-1.8694 -6.0629,-1.5375 -3.1014,0.2471 -7.04,-2.6435 -8.9486,-6.5674 -0.8695,-1.7877 -2.1188,-3.7881 -2.7761,-4.4455 -0.9936,-0.9935 -1.1966,-4.445 -1.2035,-20.4606 -0.01,-10.5961 -0.2028,-19.4455 -0.4405,-19.6655 -1.0913,-1.0103 -2.2815,-6.8064 -1.5481,-7.5398 1.1027,-1.1027 0.969,-3.4609 -0.2198,-3.8767 -0.733,-0.2563 -0.6262,-0.7716 0.4,-1.9296 1.499,-1.6917 1.8882,-4.2539 0.6461,-4.2539 -1.0516,0 -8.1347,8.3274 -9.3557,10.9993 -1.1914,2.6072 -3.0368,4.7512 -6.2145,7.2203 -1.2781,0.9932 -3.1715,2.9545 -4.2074,4.3586 -1.0359,1.404 -3.77,4.1243 -6.0759,6.045 -4.7836,3.9844 -16.9931,12.1768 -18.1477,12.1768 -1.6733,0 -4.8449,1.917 -4.8449,2.9284 0,0.5893 -0.5862,1.0716 -1.3026,1.0716 -0.7164,0 -3.232,1.1038 -5.59,2.4529 -5.6533,3.2346 -13.0252,5.2644 -26.3074,7.2435 -2.64,0.3933 -6.96,1.0729 -9.6,1.5099 -2.64,0.437 -7.5,1.1198 -10.8,1.5171 -3.3,0.3973 -9.24,1.33 -13.2,2.0727 -6.7506,1.2659 -12.8406,2.1023 -15.6,2.1424 -4.8357,0.07 -19.5839,-1.0847 -23.1062,-1.8097 -2.3684,-0.4875 -5.2776,-0.6921 -6.4648,-0.4546 -1.1873,0.2375 -3.5749,-0.056 -5.3058,-0.6525 -1.7309,-0.5964 -6.0217,-1.4782 -9.5351,-1.9596 -3.5135,-0.4816 -9.387,-1.824 -13.0523,-2.9833 -5.5484,-1.755 -7.1222,-1.9673 -9.4,-1.2683 -2.4513,0.7524 -2.7358,0.6812 -2.7358,-0.6854 0,-1.1628 -0.5728,-1.5251 -2.4109,-1.5251 -1.3259,0 -3.0359,-0.3314 -3.8,-0.7364 -3.1003,-1.6435 -11.9793,-4.7924 -14.8121,-5.2531 -1.6627,-0.2704 -4.1827,-1.1644 -5.6,-1.9867 -1.4174,-0.8222 -4.107,-1.8978 -5.977,-2.3902 -1.87,-0.4924 -3.4,-1.3082 -3.4,-1.8129 0,-0.5046 -0.81,-1.7841 -1.8,-2.8431 -1.3274,-1.4201 -0.6762,-1.1711 2.4804,0.9484 4.1358,2.7769 6.5196,3.5864 6.5196,2.2138 0,-1.1371 -12.2602,-10.9277 -15.2,-12.1382 -3.3839,-1.3934 -11.2462,-6.5294 -12.7274,-8.3142 -0.5877,-0.7081 -1.6078,-1.2874 -2.267,-1.2874 -1.7973,0 -10.3342,-9.4343 -12.6683,-14 -2.317,-4.5322 -6.7456,-11.2577 -8.8959,-13.5097 -1.7043,-1.785 -4.0323,-5.2019 -4.6944,-6.8903 -0.2588,-0.66 -2.217,-4.98 -4.3516,-9.6 -8.4734,-18.3399 -13.3541,-39.9547 -13.7289,-60.8 -0.1524,-8.4731 1.0677,-26.4687 2.1152,-31.2 0.2435,-1.1 0.7618,-4.16 1.1517,-6.8 0.6761,-4.5781 9.1545,-31.1103 12.0152,-37.6 5.4744,-12.4195 5.9412,-13.2321 11.4514,-19.9351 1.21,-1.4719 2.2,-3.0484 2.2,-3.5033 0,-0.455 1.44,-1.9677 3.2,-3.3616 1.76,-1.3939 3.2,-2.8973 3.2,-3.3407 0,-0.7528 2.5244,-3.8981 9.8,-12.2107 1.65,-1.8852 3,-3.7811 3,-4.2132 0,-2.3327 15.8097,-15.4354 18.6242,-15.4354 0.463,0 5.198,-1.9342 10.5222,-4.2982 5.3242,-2.364 11.1995,-4.5548 13.0563,-4.8685 1.8567,-0.3137 4.6195,-1.4143 6.1395,-2.4457 1.52,-1.0315 4.4092,-2.1223 6.4205,-2.4239 2.0114,-0.3016 3.8395,-0.8436 4.0624,-1.2044 0.2231,-0.3608 4.0887,-1.7932 8.5902,-3.183 4.5016,-1.3898 9.1193,-2.8737 10.2617,-3.2977 1.1424,-0.424 2.9812,-0.5439 4.0864,-0.2665 1.1652,0.2924 3.3174,-0.044 5.123,-0.8012 1.7125,-0.7181 7.2536,-1.6657 12.3136,-2.1058 5.06,-0.44 12.44,-1.1006 16.4,-1.4678 3.96,-0.3672 7.5024,-0.4846 7.8719,-0.2608 0.3696,0.2237 4.5096,0.5283 9.2,0.6768 33.519,1.0608 67.7635,3.0188 70.5281,4.0326 1.9792,0.7258 25.5294,2.243 32.2874,2.0802 6.8441,-0.165 11.29,-1.0957 13.7197,-2.8724 1.3193,-0.9647 1.5494,-2.0803 1.5036,-7.2898 -0.035,-4.052 -0.4,-6.3646 -1.068,-6.7775 -0.6069,-0.3751 -0.8024,-1.2931 -0.4871,-2.2866 0.299,-0.9419 -0.01,-2.6981 -0.7144,-4.0601 -0.6826,-1.3201 -1.2412,-4.1722 -1.2412,-6.3379 0,-2.1657 -0.9346,-6.7736 -2.0769,-10.2397 -1.1423,-3.4662 -2.5731,-8.1744 -3.1796,-10.4628 -1.3129,-4.954 -4.2055,-9.2176 -8.8462,-13.0393 -1.87,-1.54 -3.4524,-3.16 -3.5164,-3.6 -0.2214,-1.5223 -6.3974,-6.193 -9.7823,-7.398 -5.354,-1.906 -35.1374,-2.3339 -43.4167,-0.6237 -6.4501,1.3323 -15.4148,5.4554 -16.1763,7.4399 -0.2331,0.6074 -1.2896,1.4335 -2.3478,1.8359 -1.0581,0.4023 -2.539,1.8124 -3.2908,3.1336 -0.7519,1.3212 -1.6611,2.4044 -2.0206,2.4072 -1.1262,0.01 -10.1386,8.288 -11.7618,10.8051 -0.8512,1.32 -2.006,3.1055 -2.5662,3.9678 -0.5601,0.8623 -1.8284,2.2385 -2.8184,3.0581 -0.99,0.8196 -1.8,2.0041 -1.8,2.6322 0,0.6386 -0.7656,1.1419 -1.737,1.1419 -0.9554,0 -2.4211,0.619 -3.2571,1.3756 -1.3453,1.2176 -4.0648,1.4041 -23.6629,1.6228 -12.1787,0.1359 -22.503,0.2792 -22.943,0.3183 -1.0578,0.094 -18.8055,-0.8855 -24.4,-1.3469 -7.638,-0.6298 -17.0882,-2.0033 -20.224,-2.9392 -2.2071,-0.6588 -3.2628,-0.6638 -3.9078,-0.019 -0.6451,0.6451 -1.4392,0.5197 -2.9399,-0.464 -1.5786,-1.0349 -4.1077,-1.3761 -10.8921,-1.4699 -14.2196,-0.1965 -23.0943,-1.5564 -28.5452,-4.3742 -1.5998,-0.827 -3.6529,-1.5037 -4.5623,-1.5037 -2.2767,0 -5.6494,-1.5487 -8.6416,-3.9682 -1.3821,-1.1175 -3.4943,-2.7518 -4.6939,-3.6318 -5.909,-4.3349 -7.3194,-6.3471 -9.9116,-14.1417 -2.2695,-6.8241 -2.4723,-8.1218 -1.7111,-10.9486 0.4749,-1.764 0.7659,-6.5602 0.6465,-10.6584 -0.2227,-7.6467 0.5792,-12.0477 3.5439,-19.4513 0.8809,-2.2 1.9762,-5.08 2.4339,-6.4 1.668,-4.8111 3.3744,-8.8097 3.9327,-9.2161 0.3144,-0.2288 1.3355,-2.2088 2.269,-4.4 0.9336,-2.1911 3.0812,-5.4239 4.7725,-7.1839 1.6914,-1.76 5.4772,-6.89 8.4129,-11.4 2.9357,-4.51 5.6788,-8.2 6.0958,-8.2 0.4169,0 2.28,-1.3617 4.1401,-3.0259 1.8603,-1.6643 5.0022,-4.0833 6.9822,-5.3756 1.98,-1.2923 5.22,-3.6622 7.2,-5.2665 1.98,-1.6043 5.04,-3.6986 6.8,-4.6539 1.76,-0.9553 5.36,-3.3557 8,-5.3344 7.2922,-5.4652 10.6114,-7.5336 17.6,-10.9675 3.52,-1.7296 6.94,-3.5998 7.6,-4.156 0.66,-0.5562 2.1,-1.2041 3.2,-1.4396 1.1,-0.2356 4.7,-1.5763 8,-2.9793 3.3,-1.4032 9.24,-3.6277 13.2,-4.9435 3.96,-1.3158 7.74,-2.8276 8.4,-3.3596 0.66,-0.5319 2.64,-1.4545 4.4,-2.0503 1.76,-0.5958 7.9188,-3.1706 13.6862,-5.7218 5.7675,-2.5512 11.5275,-4.8846 12.8,-5.1854 1.2726,-0.3008 3.5738,-1.1943 5.1138,-1.9857 4.1445,-2.1295 7.124,-2.6952 23.2,-4.4049 12.589,-1.3388 14.2726,-1.4139 30.4,-1.3564 5.94,0.022 13.68,0.01 17.2,-0.035 3.52,-0.041 10,-0.01 14.4,0.075 4.4,0.082 10.7,0.032 14,-0.1107 6.1042,-0.2644 15.1755,0.2636 32.4,1.8859 6.9191,0.6516 11.2755,1.5373 15.6,3.1716 7.9776,3.0148 13.5088,4.6775 23.2,6.9736 1.1,0.2606 2.9,1.0919 4,1.8472 1.1,0.7554 5.5322,2.9542 9.8492,4.8863 4.6299,2.0721 10.8642,5.7699 15.2,9.0157 4.043,3.0267 8.6108,6.031 10.1508,6.6763 10.0865,4.2266 25.024,13.4057 34.5833,21.2515 3.6392,2.9869 9.3167,7.6002 12.6167,10.252 7.9766,6.4098 10.0771,8.3801 12.6032,11.8222 1.1686,1.5924 4.3554,5.2534 7.0819,8.1358 2.7266,2.8823 5.8579,7.0223 6.9584,9.2 13.5559,26.8215 18.6843,37.9991 19.7016,42.9405 0.3871,1.8804 1.2409,5.3989 1.8972,7.8189 0.6563,2.42 1.4508,7.46 1.7655,11.2 0.5055,6.0078 1.7775,12.7459 4.2675,22.6065 0.612,2.4236 0.5213,3.1397 -0.4672,3.6929 -0.9195,0.5146 -1.0924,1.4003 -0.6911,3.5391 0.2943,1.5691 0.6586,13.0473 0.8095,25.5071 0.2115,17.4678 0,24.3028 -0.9273,29.8544 -1.4754,8.8405 -1.0689,36.3881 0.5661,38.3582 0.8005,0.9646 0.7572,1.4335 -0.2231,2.4138 -0.9714,0.9715 -1.2637,3.9186 -1.4502,14.6224 -0.4002,22.9667 -0.4162,22.728 1.6127,24.0751 l 1.7943,1.1913 -2.2468,1.7916 -2.2468,1.7916 1.3724,5.478 c 0.7547,3.0128 1.341,7.998 1.3028,11.078 -0.1716,13.8384 -0.2091,33.0152 -0.087,44.4 0.074,6.82 0.088,14.56 0.032,17.2 -0.056,2.64 0.1158,6.06 0.3816,7.6 1.9604,11.3586 2.1665,15.4425 1.3358,26.467 -0.4779,6.3431 -1.0361,17.293 -1.2403,24.333 -0.2043,7.04 -0.5401,18.56 -0.7462,25.6 -0.2061,7.04 -0.4234,14.5251 -0.4829,16.6336 -0.088,3.098 0.2831,4.2493 1.9313,6 1.1219,1.1915 2.1684,2.8864 2.3257,3.7664 0.1774,0.9926 1.0421,1.705 2.2778,1.8766 3.0295,0.4208 3.9918,1.6228 3.9918,4.9858 0,2.9463 -1.5342,6.0559 -5.5574,11.2641 -0.9034,1.1695 -1.6426,2.844 -1.6426,3.721 0,0.9742 -1.0892,2.237 -2.8,3.2465 -2.3901,1.4101 -2.8,2.0812 -2.8,4.5836 v 2.9317 l -3,-0.5341 c -1.65,-0.2938 -7.033,-0.7536 -11.9622,-1.0217 -8.6417,-0.4702 -18.4533,0.5384 -29.8214,3.0654 -5.2518,1.1674 -21.5276,1.4825 -31.4799,0.6095 z M 1428.1157,1510.327 c 0.6285,-0.9466 1.9734,-1.6752 3.0976,-1.6779 2.9758,-0.01 16.9481,1.5929 22.7889,2.61 2.822,0.4915 7.216,0.6623 9.7644,0.3799 2.5484,-0.2826 7.6934,-0.671 11.4334,-0.8632 26.6402,-1.3687 32.3426,-2.1592 38.7557,-5.3729 5.3863,-2.6991 12.4753,-9.6163 14.8906,-14.5298 0.885,-1.8002 2.2993,-4.5331 3.143,-6.0731 0.8436,-1.54 1.5512,-3.5339 1.5723,-4.4309 0.021,-0.8969 0.773,-3.0569 1.6709,-4.8 1.6824,-3.2659 4.7303,-11.8291 6.3037,-17.7104 0.9812,-3.6679 2.663,-17.6865 2.567,-21.3973 -0.034,-1.2864 -0.4362,-2.7144 -0.8952,-3.1734 -0.459,-0.459 -3.9786,-0.9121 -7.8213,-1.0067 -3.8427,-0.095 -7.8867,-0.2547 -8.9867,-0.3556 -2.5972,-0.2383 -7.4974,0.2993 -26,2.8525 -8.36,1.1536 -17.3959,2.3989 -20.0798,2.7672 -2.684,0.3684 -5.564,1.0231 -6.4,1.455 -0.8361,0.4319 -3.6802,0.9747 -6.3202,1.2061 -7.3527,0.6445 -18.9421,4.0455 -23.6,6.9257 -0.66,0.408 -3.72,1.7559 -6.8,2.9952 -4.6794,1.8828 -6.7178,3.3794 -12.4,9.1043 -9.3071,9.3769 -11.891,14.598 -12.5246,25.308 -0.4258,7.1962 -0.2976,8.2357 1.5163,12.3032 2.1597,4.8429 6.2736,10.0161 8.5361,10.7342 0.7862,0.2495 1.8363,1.3467 2.3336,2.4383 1.1042,2.4233 1.9986,2.504 3.4543,0.3116 z m -505.12842,147.9947 c -0.77696,-0.4485 -5.09696,-1.1394 -9.6,-1.5355 -10.01856,-0.881 -17.79512,-2.0494 -19.12944,-2.874 -0.54944,-0.3396 -4.07224,-0.9001 -7.8284,-1.2456 -11.74304,-1.08 -15.66184,-1.9945 -25.42112,-5.9324 -2.97456,-1.2003 -6.99408,-2.486 -8.93232,-2.8572 -2.11672,-0.4055 -3.99544,-1.348 -4.70456,-2.3605 -1.3576,-1.9383 -5.6276,-3.9165 -8.45376,-3.9165 -1.16368,0 -2.43968,-0.7722 -3.20432,-1.9394 -0.69896,-1.0665 -2.09032,-2.1926 -3.09208,-2.5022 -1.00168,-0.3096 -4.20776,-2.2893 -7.12464,-4.3993 -2.91688,-2.11 -7.33928,-4.9853 -9.82768,-6.3897 -3.16512,-1.7863 -4.85456,-3.3436 -5.62344,-5.1839 -0.60448,-1.4467 -4.912,-6.5227 -9.57232,-11.2799 -4.66025,-4.7573 -8.4732,-8.9028 -8.4732,-9.2122 0,-0.3096 -1.53749,-2.364 -3.41665,-4.5655 -1.87915,-2.2014 -3.91299,-5.3809 -4.51964,-7.0653 -0.60665,-1.6844 -3.20916,-5.3647 -5.78336,-8.1783 -2.57419,-2.8137 -4.68035,-5.5814 -4.68035,-6.1507 0,-0.9372 -6.33313,-14.4413 -8.59808,-18.3336 -1.06384,-1.8282 -3.49585,-12.4583 -5.39934,-23.6 -1.53914,-9.0091 -2.12352,-16.5774 -2.40905,-31.2 -0.11599,-5.94 -0.43067,-16.74 -0.69928,-24 -0.26863,-7.26 -0.67481,-22.3195 -0.90264,-33.4656 -0.22783,-11.1461 -0.76335,-21.8234 -1.19002,-23.7273 -1.04195,-4.6494 -1.04626,-22.7538 -0.0126,-53.2071 1.40946,-41.5275 2.3054,-60.8231 3.15744,-68 0.44402,-3.74 0.60115,-12.2 0.3492,-18.8 -0.25196,-6.6 -0.5183,-16.8322 -0.59189,-22.7383 -0.0958,-7.6921 -0.4132,-10.8315 -1.11872,-11.0667 -1.497,-0.499 -1.23656,-4.195 0.2956,-4.195 1.13552,0 1.21904,-1.1553 0.73733,-10.2 -0.29878,-5.61 -0.85137,-12.36 -1.22799,-15 -0.37662,-2.64 -0.56778,-5.7 -0.42481,-6.8 1.32466,-10.1916 1.37212,-11.2 0.5271,-11.2 -1.0755,0 -1.20701,-3.7543 -0.14479,-4.1334 0.90202,-0.3218 1.306,-54.8615 0.45877,-61.9354 l -0.58313,-4.8687 2.93421,-1.7313 c 1.61382,-0.9522 3.72364,-1.7326 4.68849,-1.7342 0.96485,0 2.93298,-0.7216 4.37361,-1.6 3.55005,-2.1644 5.48205,-2.0183 11.21975,0.8489 3.60036,1.7991 5.2736,2.2483 6.32778,1.6989 2.02416,-1.055 10.84557,-1.871 19.15905,-1.7722 46.86664,0.5573 56.6392,0.9103 66.41488,2.3988 8.39624,1.2785 13.05128,1.4954 25.63488,1.1948 14.8168,-0.3542 15.52928,-0.2992 19.6,1.5125 2.32336,1.034 5.7884,3.1943 7.7,4.8007 1.91168,1.6063 3.9376,2.9206 4.50208,2.9206 1.57032,0 3.10184,2.1327 2.01424,2.805 -0.52488,0.3244 -0.67776,1.494 -0.37528,2.8712 0.31744,1.4451 0.18384,2.3238 -0.35312,2.3238 -1.62208,0 -0.82752,1.1987 2.35528,3.5534 3.38256,2.5025 3.97408,3.9712 1.91744,4.7604 -0.90968,0.349 -1.1288,1.1014 -0.78208,2.6856 0.38136,1.7424 0.0616,2.5155 -1.53632,3.7127 -2.36912,1.7752 -2.46504,2.3265 -0.70992,4.0816 1.1044,1.1045 1.1496,1.6038 0.29056,3.209 -0.65744,1.2285 -0.8408,3.2626 -0.51808,5.7492 1.8472,14.2359 2.08616,26.9799 0.71696,38.2481 -0.53464,4.4 -1.14816,12.5134 -1.36344,18.0298 -0.21536,5.5164 -0.76912,12.6923 -1.23064,15.9464 -0.46152,3.2542 -0.99824,11.8808 -1.19264,19.1702 -0.19448,7.2895 -0.59696,15.3257 -0.89456,17.8582 -0.30376,2.5859 -0.12888,7.1452 0.39896,10.4 0.51696,3.1875 1.27768,12.8154 1.69048,21.3954 0.41288,8.58 1.29432,24.24 1.95888,34.8 0.66448,10.56 1.57072,25.32 2.01384,32.8 0.44312,7.48 1.35912,16.48 2.03552,20 0.67648,3.52 1.60104,9.28 2.05464,12.8 0.4536,3.52 1.18632,7.5679 1.62824,8.9954 0.44192,1.4274 0.57648,2.9625 0.29904,3.4115 -2.11064,3.4151 13.84176,47.1959 19.25592,52.847 1.27328,1.3291 5.38256,4.079 9.13168,6.1111 3.74912,2.032 8.86688,5.0762 11.37272,6.7648 4.67976,3.1535 8.29168,3.8911 10.13776,2.0702 0.812,-0.8009 1.20224,-0.7469 1.96,0.2712 0.5204,0.6992 2.20616,1.3409 3.74616,1.4261 14.08593,0.779 23.25853,-0.6724 32.68383,-5.1715 3.3639,-1.6058 8.0673,-3.5976 10.4522,-4.4264 6.4501,-2.2415 10.7099,-5.0132 14.2624,-9.2799 7.4555,-8.9545 10.0827,-19.2404 12.6227,-49.4195 0.2963,-3.52 0.915,-6.86 1.3751,-7.4222 0.4805,-0.5872 0.7926,-4.6171 0.7335,-9.4705 -0.081,-6.6771 0.1581,-8.7094 1.1415,-9.6929 0.7615,-0.7614 1.0658,-1.9563 0.784,-3.0789 -0.2532,-1.0089 0.2301,-7.3472 1.0739,-14.0849 1.5976,-12.7552 2.0517,-20.6093 2.0497,-35.4506 0,-15.9562 -1.2859,-71.926 -1.6637,-72.5373 -0.2037,-0.3296 -0.3599,-9.0519 -0.347,-19.3829 0.022,-17.9494 -1.1297,-30.2676 -2.9576,-31.626 -0.3358,-0.2496 -0.3931,-14.1338 -0.1274,-30.8538 0.2657,-16.72 0.1665,-32.38 -0.2204,-34.8 -1.0918,-6.8294 -0.043,-15.6627 2.1717,-18.295 3.5543,-4.2242 17.9655,-9.6447 17.9655,-6.7575 0,0.6275 1.89,1.9818 4.2,3.0095 3.8865,1.7289 5.6276,1.9063 23.3261,2.3767 18.7923,0.4994 19.1579,0.4785 20.9491,-1.2043 l 1.8229,-1.7126 -0.4423,1.6916 c -0.3826,1.4633 -0.079,1.7044 2.251,1.7864 3.6998,0.1302 4.9104,-0.096 6.2048,-1.1614 1.5843,-1.3034 7.91,-2.8566 11.8028,-2.8981 3.8474,-0.041 15.2083,-2.2591 17.3474,-3.387 0.8039,-0.4239 7.1039,-1.3117 14,-1.973 17.0747,-1.6374 25.111,-2.4591 26.5382,-2.7135 4.5778,-0.816 7.2416,0.105 10.7524,3.7173 4.01,4.1259 5.1255,6.8135 7.6043,18.3209 0.9478,4.4 2.0815,9.44 2.5193,11.2 1.6286,6.5469 3.0931,15.3049 3.1083,18.5885 0.015,3.2398 0.4425,5.5562 2.8438,15.4115 2.6719,10.966 3.935,29.8054 2.7086,40.4 -3.1742,27.4203 -5.7022,78.0674 -3.9267,78.6666 1.1819,0.399 0.9527,3.8998 -0.2864,4.3753 -0.9971,0.3826 -2.122,6.8379 -3.3735,19.3581 -0.2199,2.2 -0.7973,6.9082 -1.2833,10.4626 -0.738,5.3978 -0.6584,7.6873 0.4826,13.8959 0.787,4.2824 1.1571,8.834 0.8731,10.7374 -2.4942,16.7195 -3.7533,26.6579 -4.7768,37.7041 -0.9056,9.7749 -0.1555,52.5978 1.1141,63.6 0.4824,4.18 1.2017,12.46 1.5985,18.4 0.3967,5.94 1.1381,15.48 1.6474,21.2 0.5094,5.72 1.0651,16.52 1.2351,24 0.6467,28.4727 2.0009,67.5182 2.6081,75.2 0.3479,4.4 0.3775,9.44 0.066,11.2 -0.3116,1.76 -0.9459,5.36 -1.4096,8 -0.7545,4.2957 -1.2753,5.2019 -4.9574,8.6254 -2.6471,2.4611 -5.3686,4.1608 -7.631,4.7659 -1.9341,0.5173 -3.5166,1.3896 -3.5166,1.9384 0,0.5488 -1.2472,1.2317 -2.7715,1.5177 -1.5244,0.286 -3.2026,1.0393 -3.7294,1.6741 -0.7038,0.8481 -1.1113,0.9061 -1.5361,0.2187 -0.6347,-1.027 -2.6831,-0.6612 -17.163,3.0657 -4.4,1.1325 -11.06,2.3194 -14.8,2.6375 -16.1387,1.3729 -32.0861,2.5033 -38.4,2.7221 -3.74,0.1295 -7.3835,0.4811 -8.0968,0.781 -0.8167,0.3435 -1.4738,0.084 -1.7749,-0.7005 -0.3804,-0.9913 -1.8532,-1.246 -7.2053,-1.246 -5.1217,0 -6.9745,-0.2982 -7.764,-1.2494 -0.5997,-0.7225 -2.0744,-1.1817 -3.4979,-1.0892 -1.3536,0.088 -3.0011,-0.034 -3.6611,-0.2722 -0.66,-0.2378 -4.98,-0.8486 -9.6,-1.3574 -4.62,-0.5089 -10.38,-1.243 -12.8,-1.6314 -2.42,-0.3883 -7.82,-1.1491 -12,-1.6906 -8.7755,-1.1369 -11.5188,-2.2587 -13.1265,-5.3676 -0.6344,-1.2269 -2.0011,-2.6169 -3.0371,-3.0889 -5.6807,-2.5883 -8.7336,-14.4612 -5.4454,-21.1771 1.1518,-2.3522 1.8547,-5.7396 2.1739,-10.4762 0.4152,-6.1592 0.3136,-7 -0.8465,-7 -0.7851,0 -1.3184,0.6473 -1.3184,1.6 0,0.8889 -0.5334,1.6 -1.2,1.6 -0.66,0 -1.2203,0.63 -1.2451,1.4 -0.025,0.77 -0.4749,0.1444 -1,-1.3902 -1.1414,-3.3352 -3.0616,-3.918 -5.4813,-1.6637 -0.9764,0.9097 -2.0506,1.6539 -2.3869,1.6539 -0.3364,0 -1.2177,1.277 -1.9583,2.8378 -1.6623,3.503 -20.2651,21.2819 -24.7671,23.6702 -1.8102,0.9603 -3.622,2.421 -4.0263,3.2459 -0.4043,0.825 -5.415,3.8803 -11.135,6.7895 -5.71999,2.9094 -13.13663,6.6831 -16.48135,8.386 -3.63488,1.8508 -8.62344,3.5888 -12.4,4.3203 -6.69232,1.2961 -14.12264,3.0599 -20.71864,4.9179 -4.9448,1.3929 -28.18112,2.1267 -30.21272,0.9541 z m 621.87582,-7.5883 c 0.038,-0.932 0.228,-1.1216 0.4834,-0.4834 0.2311,0.5775 0.2027,1.2675 -0.063,1.5334 -0.2659,0.2658 -0.455,-0.2068 -0.4203,-1.05 z M 1975.6,1642.4 c -1.2895,-0.5541 -1.027,-0.6985 1.3528,-0.7438 1.624,-0.031 3.1753,0.3038 3.4472,0.7438 0.5966,0.9654 -2.5535,0.9654 -4.8,0 z m -39.75,-2.1465 c 0.5775,-0.2311 1.2675,-0.2027 1.5334,0.063 0.2658,0.2659 -0.2068,0.455 -1.05,0.4203 -0.932,-0.038 -1.1216,-0.228 -0.4834,-0.4834 z m 24.0002,-0.6699 c -1.2133,-1.2134 -23.7608,-2.9161 -33.0502,-2.4958 -7.1452,0.3232 -13.1541,0.1005 -19.2,-0.7114 -4.84,-0.65 -13.1895,-1.5255 -18.5544,-1.9455 -5.365,-0.42 -13.465,-1.6493 -18,-2.7317 -4.5351,-1.0825 -9.9099,-2.1928 -11.9442,-2.4674 -2.0341,-0.2747 -7.4341,-1.7667 -12,-3.3156 -4.5657,-1.5489 -9.2914,-3.0145 -10.5014,-3.257 -1.21,-0.2424 -2.2,-0.7599 -2.2,-1.15 0,-0.3901 -1.0978,-0.7092 -2.4398,-0.7092 -1.3418,0 -3.548,-0.5731 -4.9024,-1.2736 -1.3546,-0.7004 -4.1268,-1.7806 -6.1604,-2.4002 -2.0962,-0.6387 -7.1619,-3.7145 -11.6974,-7.1026 -7.4767,-5.585 -10.8,-7.1799 -10.8,-5.1831 0,0.4623 -1.53,-0.7566 -3.4,-2.7087 -1.87,-1.952 -4.21,-3.7944 -5.2,-4.0944 -0.99,-0.2999 -1.8,-1.061 -1.8,-1.6913 0,-1.2313 -1.634,-3.04 -4.9306,-5.4578 -1.3169,-0.9658 -1.924,-2.0361 -1.6814,-2.9641 0.2574,-0.9845 -1.3811,-3.3967 -5.0869,-7.4883 -5.4003,-5.9625 -6.9834,-6.9885 -7.7713,-5.0359 -0.2219,0.55 -0.4319,0.2113 -0.4667,-0.7528 -0.034,-0.964 -0.4231,-1.9753 -0.8631,-2.2472 -0.44,-0.2719 -0.8,-1.0278 -0.8,-1.6796 0,-0.6518 -0.6734,-2.1606 -1.4964,-3.3528 -6.527,-9.4546 -18.3147,-31.1818 -21.5754,-39.7676 -1.8177,-4.7863 -5.1119,-17.693 -5.5036,-21.5627 -0.2205,-2.1795 -0.9181,-4.752 -1.5501,-5.7167 -1.5146,-2.3114 -2.2839,-16.0634 -0.9862,-17.6271 0.6138,-0.7394 0.7495,-2.6466 0.3999,-5.6208 -0.6072,-5.1658 0.6887,-7.4727 4.1977,-7.4727 1.1953,0 3.0957,-1.0253 4.5963,-2.4797 2.7924,-2.7065 3.2173,-2.7607 12.7178,-1.6237 22.5943,2.704 39.224,3.8186 69.2,4.638 23.2198,0.6348 22.3502,0.6474 34,-0.4915 5.28,-0.5161 11.94,-1.0524 14.8,-1.1917 2.86,-0.1392 7.72,-0.5996 10.8,-1.0232 3.115,-0.4284 6.6806,-0.476 8.035,-0.1072 2.9001,0.7897 6.7331,4.3096 11.3246,10.3994 1.8478,2.4507 6.3853,7.2028 10.0833,10.5601 7.2061,6.5421 12.821,9.5861 25.3571,13.7467 6.5396,2.1704 7.5219,2.2685 25.6494,2.5594 17.4131,0.2795 19.3027,0.1718 24.8,-1.4131 3.2728,-0.9435 8.1106,-2.161 10.7506,-2.7055 2.64,-0.5445 6.42,-1.7489 8.4,-2.6764 5.2325,-2.4512 13.5181,-8.7365 14.575,-11.0562 1.1076,-2.4309 0.1096,-5.7745 -2.1048,-7.0525 -0.8414,-0.4856 -2.1056,-1.4229 -2.8095,-2.0829 -9.2193,-8.6453 -24.7089,-17.1039 -35.2607,-19.2555 -1.98,-0.4037 -4.32,-1.0667 -5.2,-1.4733 -3.6362,-1.6802 -7.2891,-2.4728 -11.5194,-2.4996 -2.4644,-0.016 -7.7206,-0.594 -11.6806,-1.2854 -10.2517,-1.7899 -17.0535,-2.2037 -18.3627,-1.1171 -0.7525,0.6245 -1.257,0.6463 -1.6133,0.07 -0.2851,-0.4613 -1.6672,-0.8396 -3.0712,-0.8405 -1.4041,0 -8.4928,-0.8611 -15.7528,-1.9116 -7.26,-1.0505 -15.4182,-2.144 -18.1293,-2.4301 -6.0753,-0.6411 -12.3782,-3.0624 -21.8074,-8.3779 -3.9795,-2.2433 -7.8718,-4.0823 -8.6495,-4.0866 -2.0358,-0.011 -9.2108,-3.4922 -10.5603,-5.1234 -1.5966,-1.9298 -6.798,-4.4688 -9.1549,-4.4688 -1.0809,0 -2.0852,-0.2881 -2.232,-0.6402 -0.1466,-0.3522 -2.7866,-2.0236 -5.8666,-3.7143 -3.08,-1.6907 -7.04,-4.2324 -8.8,-5.6482 -3.5986,-2.8948 -9.8451,-6.1746 -18.9761,-9.9637 -8.3241,-3.4544 -15.0165,-7.8738 -22.2932,-14.7218 -6.6478,-6.2562 -8.0531,-7.4128 -16.3307,-13.4402 -3.08,-2.2428 -5.7417,-4.4813 -5.9149,-4.9747 -0.1733,-0.4933 -1.6561,-2.1877 -3.2953,-3.7653 -1.6392,-1.5776 -3.6089,-3.8276 -4.3771,-5 -0.7682,-1.1724 -1.8053,-2.1352 -2.3047,-2.1398 -2.6233,-0.024 -15.6322,-21.5353 -18.5228,-30.629 -1.0905,-3.4305 -2.4729,-7.2105 -3.0722,-8.4 -0.5992,-1.1896 -1.3152,-4.4218 -1.591,-7.1828 -0.2759,-2.7611 -1.0405,-6.062 -1.699,-7.3354 -3.642,-7.0429 -0.7824,-37.4713 5.6052,-59.6446 0.7606,-2.64 1.8424,-6.42 2.4042,-8.4 0.9788,-3.4499 9.0695,-19.1044 11.1635,-21.6 0.5539,-0.66 1.7144,-2.82 2.5791,-4.8 3.1666,-7.2505 7.8192,-13.3987 16.7204,-22.0949 5.0076,-4.8923 9.1046,-9.4823 9.1046,-10.2 0,-0.7333 0.6441,-1.3051 1.4702,-1.3051 0.827,0 4.1988,-2.9973 7.707,-6.8512 6.691,-7.3504 8.4611,-8.8184 25.5653,-21.2021 11.8793,-8.6009 15.9928,-10.937 27.2549,-15.4783 3.9139,-1.5782 8.0356,-3.7499 9.1594,-4.826 2.9394,-2.8148 16.3629,-9.932 21.1592,-11.2187 2.2462,-0.6025 8.224,-2.6002 13.284,-4.4393 5.06,-1.8391 10.1427,-3.3058 11.295,-3.2593 1.1522,0.046 4.7522,-0.7877 8,-1.8536 6.4329,-2.1112 13.7675,-3.7918 23.105,-5.2941 3.3,-0.5309 6.6285,-1.2948 7.3966,-1.6976 0.768,-0.4028 8.328,-1.2586 16.8,-1.9016 17.949,-1.3626 47.7756,-0.4796 54.6995,1.6192 2.1471,0.6509 6.2349,1.4257 9.0839,1.7219 5.4001,0.5615 14.0349,3.1408 31.62,9.4456 5.72,2.0508 11.9789,4.2271 13.9086,4.8363 1.9298,0.6092 4.4498,1.984 5.6,3.0551 1.1503,1.071 3.9808,2.5603 6.2902,3.3094 2.3093,0.7492 6.2693,2.8855 8.8,4.7475 2.5306,1.8619 6.7612,4.7534 9.4012,6.4256 2.64,1.6721 6.78,4.7272 9.2,6.7889 2.42,2.0618 6.6006,5.4245 9.2901,7.4727 4.8765,3.7136 13.8505,12.8888 17.8007,18.1996 1.1455,1.54 3.3814,4.42 4.9686,6.4 1.5872,1.98 3.8164,5.2384 4.9537,7.2408 1.1372,2.0024 3.4446,5.3268 5.1273,7.3875 1.6828,2.0607 3.8482,5.6423 4.8121,7.9592 0.9638,2.3169 3.9773,9.4325 6.6966,15.8125 7.3533,17.2523 10.313,25.3688 13.5648,37.2 0.9675,3.52 2.6554,8.5428 3.7508,11.1617 2.6059,6.2303 1.7925,9.4719 -3.4685,13.8211 -2.0075,1.6595 -3.9572,3.8028 -4.3327,4.763 -0.621,1.5882 -0.9091,1.6604 -3.1917,0.8 -2.2926,-0.8642 -2.6628,-0.7669 -4.2945,1.1294 -1.8215,2.1166 -7.6244,3.613 -9.0034,2.3216 -1.0324,-0.967 -15.8883,-1.4011 -23.0739,-0.6742 -3.52,0.356 -10.36,1.027 -15.2,1.491 -4.84,0.464 -10.2108,1.221 -11.935,1.6822 -1.7244,0.4613 -6.9444,1.181 -11.6,1.5994 -4.6558,0.4183 -11.165,1.0944 -14.465,1.5024 -3.3,0.408 -8.88,1.096 -12.4,1.529 -3.52,0.433 -8.6964,0.8066 -11.503,0.8303 -4.7219,0.04 -5.3493,-0.169 -8.4,-2.797 -1.8134,-1.5621 -3.657,-3.1304 -4.097,-3.4851 -0.44,-0.3548 -2.9303,-3.0788 -5.5341,-6.0532 -2.6037,-2.9745 -5.7825,-6.0457 -7.0639,-6.825 -1.2814,-0.7793 -5.0966,-4.0994 -8.4783,-7.3782 -3.3817,-3.2787 -7.0429,-6.4321 -8.1361,-7.0076 -1.0932,-0.5755 -3.9676,-2.7216 -6.3876,-4.7693 -13.1476,-11.1247 -24.6492,-14.8482 -42.9829,-13.9152 -9.0404,0.4601 -22.1914,3.3707 -25.8171,5.7139 -1.1,0.7109 -4.3659,2.433 -7.2577,3.8267 -7.1684,3.4552 -10.9017,7.8616 -12.8217,15.1331 -1.9814,7.5047 -1.9423,7.9492 1.2667,14.4 1.5322,3.08 2.7918,6.0644 2.7993,6.6319 0.031,2.4241 3.3702,7.2669 7.7012,11.1706 2.5612,2.3087 5.0633,4.1975 5.5604,4.1975 0.4971,0 1.5407,0.7038 2.3192,1.564 1.9542,2.1594 7.9032,5.0962 13.6326,6.7299 2.64,0.7528 6.96,2.0666 9.6,2.9197 2.64,0.8529 7.14,1.9516 10,2.4412 8.3514,1.43 11.3976,2.1292 14.8,3.397 1.76,0.6558 5.36,1.4428 8,1.7489 2.64,0.3061 6.359,1.0667 8.2645,1.6903 1.9055,0.6236 5.1455,1.0829 7.2,1.0206 2.0545,-0.062 5.7155,0.4433 8.1355,1.1238 2.42,0.6804 10.88,1.8288 18.8,2.5519 7.92,0.7232 16.74,1.8119 19.6,2.4194 2.86,0.6075 7.9,1.4984 11.2,1.9798 6.265,0.9139 10.739,1.8744 16.8,3.607 1.98,0.566 7.02,1.8149 11.2,2.7753 4.18,0.9604 8.32,2.0704 9.2,2.4666 0.88,0.3963 3.58,1.4741 6,2.395 5.2719,2.0064 20.233,9.8338 23.6,12.3472 1.32,0.9854 3.84,2.5352 5.6,3.4443 7.2812,3.7604 24.3108,21.2502 30.2029,31.0192 1.6059,2.6625 3.7005,5.5425 4.6547,6.4 0.9542,0.8574 2.7422,3.632 3.9733,6.1657 1.2311,2.5338 3.0778,5.6048 4.1037,6.8244 1.026,1.2196 2.5505,3.8266 3.388,5.7932 0.8373,1.9666 2.4283,5.5556 3.5354,7.9756 2.2038,4.8173 3.023,7.2307 6.1102,18 5.6874,19.84 6.7381,27.3312 4.7653,33.9744 -0.6601,2.2226 -1.1124,4.4876 -1.0053,5.0334 0.5148,2.6219 -1.2564,10.0881 -3.4012,14.337 -1.3146,2.6041 -2.7097,6.2469 -3.1004,8.095 -1.6652,7.8797 -3.198,12.6896 -6.8068,21.3602 -6.4428,15.4795 -10.8188,25.0289 -13.1976,28.8 -2.1888,3.4698 -8.8222,17.05 -8.8222,18.061 0,0.2714 -1.44,2.1294 -3.2,4.1289 -1.76,1.9995 -3.2,4.316 -3.2,5.1479 0,1.7124 -2.5338,3.0606 -3.0187,1.6062 -0.5295,-1.5887 -2.2963,-1.068 -6.0198,1.7743 -1.9586,1.4949 -4.4161,3.1625 -5.4613,3.7057 -1.0451,0.5432 -3.5069,2.29 -5.4706,3.8818 -4.5374,3.678 -19.4722,12.7889 -27.0296,16.4891 -4.0965,2.0057 -5.8,3.2759 -5.8,4.3245 0,2.2986 -1.5381,3.0391 -7.6,3.6587 -5.121,0.5235 -10.8629,2.0992 -26.4,7.2449 -3.08,1.0201 -7.58,2.2869 -10,2.8151 -2.42,0.5283 -5.3,1.2432 -6.4,1.5887 -1.1,0.3456 -5.42,1.2427 -9.6,1.9936 -8.0501,1.4463 -22.2558,5.9312 -27.6,8.7136 -2.9863,1.5548 -4.6426,1.6765 -24.8,1.8226 -11.88,0.086 -22.5475,0.3386 -23.7055,0.5611 -1.1581,0.2225 -2.258,0.2522 -2.4443,0.066 z M 2409.6,1628.0305 c -0.66,-0.32 -2.0402,-1.0197 -3.0673,-1.555 -1.0437,-0.5439 -2.9842,-0.7598 -4.4,-0.4895 -1.6998,0.3246 -2.1381,0.2429 -1.3327,-0.2483 0.66,-0.4026 2.8362,-0.9057 4.836,-1.118 3.2853,-0.349 3.7282,-0.1909 4.5916,1.6388 1.1027,2.3366 1.0198,2.5708 -0.6276,1.772 z m 21.6,-1.1639 c 0,-0.6966 0.57,-1.2666 1.2666,-1.2666 1.4128,0 1.1668,1.7222 -0.3166,2.2166 -0.5225,0.1742 -0.95,-0.2532 -0.95,-0.95 z m -13.8449,-0.1782 c -1.0893,-1.0893 0.4823,-1.8878 3.6921,-1.8762 4.1758,0.015 6.4525,1.1911 3.4264,1.7696 -1.1405,0.218 -2.0736,0.086 -2.0736,-0.2928 0,-0.3789 -0.72,-0.689 -1.6,-0.689 -0.88,0 -1.6,0.36 -1.6,0.8 0,0.8994 -1.067,1.0662 -1.8449,0.2884 z m 19.2949,-0.035 c 0.5775,-0.2311 1.2675,-0.2027 1.5334,0.063 0.2658,0.2658 -0.2068,0.455 -1.05,0.4202 -0.932,-0.038 -1.1216,-0.228 -0.4834,-0.4833 z m 38.15,-1.1334 c -24.6188,-2.7613 -66.7233,-4.0803 -93.6,-2.9321 -0.88,0.038 -5.56,-0.026 -10.4,-0.1403 -4.84,-0.1147 -13.2094,-0.2624 -18.5986,-0.3281 -5.3892,-0.066 -9.7992,-0.3362 -9.8,-0.6009 0,-0.4866 -4.599,-1.7812 -16.5589,-4.6629 -3.6067,-0.8689 -8.1067,-2.3799 -10,-3.3577 -3.2509,-1.6787 -4.955,-2.1313 -14.6425,-3.8891 -6.0603,-1.0996 -8,-1.8864 -8,-3.2449 0,-0.6799 -3.42,-4.1267 -7.6,-7.6596 -4.18,-3.533 -8.68,-7.9048 -10,-9.7152 -2.5977,-3.5627 -4.0725,-4.1938 -4.6486,-1.9893 -0.2763,1.0574 -0.3885,0.9612 -0.4586,-0.3932 -0.051,-0.9863 -0.7769,-2.2205 -1.613,-2.7427 -0.836,-0.522 -1.3424,-1.4124 -1.1253,-1.9783 0.3789,-0.9875 -2.6245,-6.0008 -3.9256,-6.5525 -0.3459,-0.1467 -0.6289,-0.7767 -0.6289,-1.4 0,-0.6233 -0.36,-1.1333 -0.8,-1.1333 -0.44,0 -0.8,-1.2937 -0.8,-2.8749 0,-2.1744 -0.3789,-2.974 -1.555,-3.2816 -1.8171,-0.4751 -2.3844,-2.9827 -1.3364,-5.9075 0.574,-1.6021 0.3164,-2.9112 -1.1512,-5.8498 -1.4856,-2.9745 -1.6683,-3.9233 -0.8528,-4.4273 0.832,-0.5141 0.8596,-1.8175 0.1392,-6.5695 -1.0143,-6.6916 -2.9367,-26.2571 -3.6441,-37.0894 -0.2587,-3.96 -0.7446,-10.08 -1.0799,-13.6 -0.3353,-3.52 -0.4396,-15.04 -0.2317,-25.6 0.4369,-22.197 0.4514,-47.9789 0.034,-61.2 -0.1746,-5.535 0.1143,-11.1122 0.7251,-14 1.2632,-5.9725 2.7794,-30.6905 2.7971,-45.6 0.01,-6.16 0.035,-15.52 0.063,-20.8 0.1119,-21.5853 -0.014,-25.8971 -0.9443,-32.4 -0.535,-3.74 -1.4979,-12.74 -2.1395,-20 -1.2479,-14.1192 -2.0856,-19.9419 -3.6658,-25.4787 l -0.9927,-3.4788 -12.4827,0.5407 c -14.3779,0.6228 -20.3808,1.4053 -26.6523,3.4742 l -4.4705,1.4749 -1.08,-4.0106 c -0.8995,-3.3404 -1.462,-4.1126 -3.3659,-4.62 -1.2572,-0.3352 -2.9948,-1.2508 -3.8612,-2.0348 -0.8664,-0.7841 -2.7176,-1.7949 -4.114,-2.2463 l -2.539,-0.8203 -0.8794,-18.8 c -0.4837,-10.34 -0.6323,-23.66 -0.3301,-29.6 0.3021,-5.94 0.2435,-13.14 -0.1301,-16 -0.3737,-2.86 -1.0053,-9.34 -1.4036,-14.4 -0.3983,-5.06 -1.1069,-11.72 -1.5746,-14.8 -1.3036,-8.5832 -1.112,-11.0382 1.1178,-14.3239 1.1,-1.6209 2,-3.6071 2,-4.4137 0,-2.428 2.0827,-3.5156 5.782,-3.0194 2.3484,0.3149 4.4631,-0.01 6.9923,-1.0715 1.9941,-0.8376 8.3057,-2.0906 14.0257,-2.7844 5.72,-0.6938 13.64,-1.6497 17.6,-2.1241 3.96,-0.4744 7.4937,-1.1294 7.8526,-1.4555 1.0715,-0.9732 2.8623,-28.8501 2.2092,-34.389 -0.6209,-5.2662 0.9335,-24.3599 2.2809,-28.0185 0.4051,-1.1 0.9503,-5.42 1.2115,-9.6 1.0772,-17.243 1.2615,-19.7234 1.6638,-22.4 0.2315,-1.54 0.09,-3.9265 -0.315,-5.3033 -0.6692,-2.2765 -0.59,-2.4651 0.8736,-2.0823 1.5132,0.3957 1.5957,0.091 1.3789,-5.0967 -0.3863,-9.24394 -0.069,-11.89418 1.6445,-13.73338 0.88,-0.94456 1.6,-2.42672 1.6,-3.29376 0,-1.94872 2.0442,-4.09056 3.9042,-4.09056 0.7644,0 3.5288,-1.29008 6.1428,-2.86688 9.6029,-5.79224 20.8946,-9.93256 27.0932,-9.93424 4.1357,0 16.6826,-1.94776 18.0664,-2.80296 0.7093,-0.4384 13.035,-0.44304 29.9934,-0.0112 15.8294,0.40296 21.1815,0.30888 30,-0.52752 10.9668,-1.04016 11.5379,-1.03472 22.8,0.21728 4.84,0.538 12.1314,0.9148 16.2032,0.83728 8.3788,-0.15952 12.4158,1.25 15.0145,5.24224 0.8041,1.23536 1.9565,2.61392 2.5607,3.06352 0.9102,0.6772 0.9428,2.11864 0.1902,8.4 -0.4996,4.1704 -1.4536,9.74256 -2.1199,12.38256 -2.4014,9.51572 -3.3857,16.12252 -3.4169,22.93532 -0.019,4.1862 -0.8572,11.0044 -2.1141,17.2 -1.2879,6.3484 -2.1891,13.7748 -2.3622,19.4647 -0.154,5.06 -0.4497,11.36 -0.6573,14 -0.3799,4.8329 -0.7269,16.9155 -0.5783,20.1321 0.079,1.7176 0.1823,1.7283 12.3206,1.2852 8.8739,-0.3238 13.0968,-0.164 15.3541,0.5809 1.7126,0.5652 7.0944,1.1533 11.9596,1.3069 4.8652,0.1536 12.2658,0.4212 16.4458,0.5947 4.18,0.1735 11.38,0.01 16,-0.3629 4.62,-0.3732 13.8,-0.77 20.4,-0.8819 11.2568,-0.1909 12.2654,-0.082 16.2855,1.752 3.5883,1.6374 4.618,2.6094 6.3285,5.9743 3.2145,6.3234 4.1744,19.207 2.8923,38.8187 -0.5609,8.58 -0.807,20.2962 -0.5469,26.036 0.3175,7.0051 0.1669,11.3632 -0.4578,13.2562 -0.5119,1.5511 -1.4354,11.6926 -2.052,22.5365 -0.6166,10.8439 -1.3592,20.1014 -1.6502,20.5722 -0.2909,0.4708 -0.8206,2.9191 -1.177,5.4408 -1.0267,7.2635 -5.6789,12.9583 -10.5858,12.9583 -1.0541,0 -2.2801,0.3635 -2.7244,0.8078 -0.4444,0.4443 -4.0787,0.9821 -8.0763,1.1951 -5.7197,0.3048 -7.359,0.1514 -7.6933,-0.7199 -0.2337,-0.6089 -1.5404,-1.6636 -2.9038,-2.3437 -2.7679,-1.3809 -15.5046,-3.0287 -20.4388,-2.6443 -1.76,0.1371 -7.16,0.5383 -12,0.8916 -4.84,0.3532 -9.7,0.9918 -10.8,1.4191 -1.1,0.4272 -3.98,0.869 -6.4,0.9817 -2.42,0.1128 -6.9802,0.4653 -10.1338,0.7834 -5.2295,0.5274 -5.8056,0.7653 -6.5502,2.7037 -0.9954,2.5916 -2.2034,10.4412 -3.3865,22.0051 -0.4884,4.7737 -1.6261,11.0737 -2.5281,14 -1.2027,3.9012 -1.6972,7.9878 -1.854,15.3204 -0.1176,5.5 -0.6122,13.6 -1.099,18 -1.8963,17.1383 -2.6779,25.2322 -3.631,37.6 -0.2036,2.64 -0.7556,6.96 -1.2269,9.6 -0.9628,5.3935 0.1039,35.1999 1.6693,46.644 0.4999,3.6541 0.7288,7.7941 0.5087,9.2 -0.8015,5.1182 8.755,29.7217 14.8697,38.2829 5.2966,7.4156 6.6457,8.4031 15.6012,11.419 7.387,2.4877 9.056,2.7509 18.3435,2.8929 5.6194,0.086 13.6371,-0.2415 17.8171,-0.7275 4.18,-0.486 13.2696,-0.8898 20.1991,-0.8975 l 12.5991,-0.014 3.2009,3.1064 c 2.1845,2.12 3.2009,3.7955 3.2009,5.2766 0,1.1936 0.6054,3.195 1.3453,4.4476 1.1722,1.9845 1.2161,2.7722 0.3405,6.1234 -2.2012,8.4263 -3.5237,25.5858 -3.3483,43.446 0.028,2.86 -0.2929,7.54 -0.7134,10.4 -0.4204,2.86 -1.1554,11.86 -1.6331,20 -0.4778,8.14 -1.3433,16.24 -1.9234,18 -0.5801,1.76 -1.0958,4.28 -1.1459,5.6 -0.05,1.32 -0.4939,4.8491 -0.9859,7.8425 -0.6804,4.1387 -0.6655,5.996 0.062,7.753 0.7404,1.7875 0.7419,2.9624 0.01,5.1904 -0.5228,1.5841 -0.7403,3.428 -0.4832,4.0978 0.6876,1.7919 -1.7024,5.8726 -3.9372,6.7223 -1.0865,0.4131 -2.4587,1.9808 -3.1208,3.5656 -1.0621,2.5419 -1.4932,2.8284 -4.2546,2.8284 -1.69,0 -5.1459,0.54 -7.6798,1.2 -4.8629,1.2667 -10.1151,1.3536 -19.3291,0.3202 z m -642,-1.52 c 0,-0.44 0.3813,-0.8 0.8472,-0.8 0.466,0 0.6247,0.36 0.3528,0.8 -0.2719,0.44 -0.6532,0.8 -0.8472,0.8 -0.1941,0 -0.3528,-0.36 -0.3528,-0.8 z m -109.2,-3.2 c -0.2719,-0.44 0.067,-0.8 0.7528,-0.8 0.6859,0 1.2472,0.36 1.2472,0.8 0,0.44 -0.3387,0.8 -0.7528,0.8 -0.414,0 -0.9753,-0.36 -1.2472,-0.8 z m 584.8,-5.6 c -0.2719,-0.44 0.067,-0.8 0.7528,-0.8 0.6859,0 1.2472,0.36 1.2472,0.8 0,0.44 -0.3387,0.8 -0.7528,0.8 -0.414,0 -0.9753,-0.36 -1.2472,-0.8 z M 732.86316,1561.9334 c 0.0384,-0.932 0.22795,-1.1216 0.48333,-0.4834 0.23109,0.5775 0.20268,1.2675 -0.0631,1.5334 -0.26583,0.2658 -0.45491,-0.2068 -0.42018,-1.05 z m 505.59994,-41.6 c 0.038,-0.932 0.228,-1.1216 0.4834,-0.4834 0.2311,0.5775 0.2027,1.2675 -0.063,1.5334 -0.2659,0.2658 -0.455,-0.2068 -0.4203,-1.05 z M 1237.7856,1492 c 0,-1.54 0.1646,-2.17 0.3658,-1.4 0.2013,0.77 0.2013,2.03 0,2.8 -0.2012,0.77 -0.3658,0.14 -0.3658,-1.4 z m -505.56771,-4.8 c 0,-1.98 0.15601,-2.79 0.34669,-1.8 0.19069,0.99 0.19069,2.61 0,3.6 -0.19068,0.99 -0.34669,0.18 -0.34669,-1.8 z m -0.95473,-34.8666 c 0.0384,-0.932 0.22795,-1.1216 0.48333,-0.4834 0.23109,0.5775 0.20268,1.2675 -0.0631,1.5334 -0.26583,0.2658 -0.45491,-0.2068 -0.42018,-1.05 z M 2248.8,1440.4472 c 0,-0.6859 0.36,-1.2472 0.8,-1.2472 0.44,0 0.8,0.3387 0.8,0.7528 0,0.414 -0.36,0.9753 -0.8,1.2472 -0.44,0.2719 -0.8,-0.066 -0.8,-0.7528 z M 145.6,1401.6 c 0,-0.44 0.36,-0.8 0.8,-0.8 0.44,0 0.8,0.36 0.8,0.8 0,0.44 -0.36,0.8 -0.8,0.8 -0.44,0 -0.8,-0.36 -0.8,-0.8 z m 1386.5559,-88.4 c 0.016,-1.32 0.1956,-1.7631 0.3985,-0.9848 0.2028,0.7784 0.1895,1.8584 -0.03,2.4 -0.2191,0.5417 -0.385,-0.095 -0.3688,-1.4152 z m -464.8,-32.8 c 0.016,-1.32 0.1956,-1.7631 0.3985,-0.9848 0.2028,0.7784 0.1895,1.8584 -0.03,2.4 -0.2191,0.5417 -0.385,-0.095 -0.3688,-1.4152 z m 402.2441,-6 c 0,-0.44 0.5613,-0.8 1.2472,-0.8 0.686,0 1.0247,0.36 0.7528,0.8 -0.2719,0.44 -0.8332,0.8 -1.2472,0.8 -0.4141,0 -0.7528,-0.36 -0.7528,-0.8 z m -222.3369,-11.6666 c 0.038,-0.932 0.228,-1.1216 0.4834,-0.4834 0.2311,0.5775 0.2027,1.2675 -0.063,1.5334 -0.2659,0.2658 -0.455,-0.2068 -0.4203,-1.05 z M 470,1115.2 c -0.27194,-0.44 -0.11318,-0.8 0.35278,-0.8 0.46597,0 0.84722,0.36 0.84722,0.8 0,0.44 -0.15875,0.8 -0.35278,0.8 -0.19404,0 -0.57528,-0.36 -0.84722,-0.8 z m 941.6,-76.8 c -0.2719,-0.44 -0.1132,-0.8 0.3528,-0.8 0.4659,0 0.8472,0.36 0.8472,0.8 0,0.44 -0.1587,0.8 -0.3528,0.8 -0.194,0 -0.5753,-0.36 -0.8472,-0.8 z M 1457.2,880 c 0.2719,-0.44 0.6532,-0.8 0.8472,-0.8 0.1941,0 0.3528,0.36 0.3528,0.8 0,0.44 -0.3813,0.8 -0.8472,0.8 -0.466,0 -0.6247,-0.36 -0.3528,-0.8 z m -964,-2.4 c -0.28924,-0.468 0.54076,-0.8 2,-0.8 1.45924,0 2.28924,0.332 2,0.8 -0.27194,0.44 -1.17194,0.8 -2,0.8 -0.82806,0 -1.72806,-0.36 -2,-0.8 z"
       id="path517" />
  </g>
</svg>
